<svg xmlns="http://www.w3.org/2000/svg" viewBox="0 0 24 24" fill="#5865F2">
  <path d="M20.317 4.492c-1.53-.69-3.17-1.2-4.885-1.49a.075.075 0 0 0-.079.036c-.211.375-.445.865-.608 1.25a18.566 18.566 0 0 0-5.487 0 12.36 12.36 0 0 0-.617-1.25.077.077 0 0 0-.079-.036A19.891 19.891 0 0 0 3.677 4.492a.07.07 0 0 0-.032.027C.533 9.093-.32 13.555.099 17.961a.08.08 0 0 0 .031.055 20.034 20.034 0 0 0 5.993 2.98.078.078 0 0 0 .084-.026 14.09 14.09 0 0 0 1.226-1.963.074.074 0 0 0-.041-.104 13.201 13.201 0 0 1-1.872-.878.075.075 0 0 1-.008-.125c.126-.093.252-.19.372-.287a.075.075 0 0 1 .078-.01c3.927 1.764 8.18 1.764 12.061 0a.075.075 0 0 1 .079.009c.12.098.246.195.372.288a.075.075 0 0 1-.006.125c-.598.344-1.22.635-1.873.877a.075.075 0 0 0-.041.105c.36.687.772 1.341 1.225 1.962a.077.077 0 0 0 .084.028 19.963 19.963 0 0 0 6.002-2.981.076.076 0 0 0 .032-.054c.5-5.094-.838-9.52-3.549-13.442a.06.06 0 0 0-.031-.028zM8.02 15.278c-1.182 0-2.157-1.069-2.157-2.38 0-1.312.956-2.38 2.157-2.38 1.21 0 2.176 1.077 2.157 2.38 0 1.312-.956 2.38-2.157 2.38zm7.975 0c-1.183 0-2.157-1.069-2.157-2.38 0-1.312.955-2.38 2.157-2.38 1.209 0 2.176 1.077 2.157 2.38 0 1.312-.948 2.38-2.157 2.38z"/>
</svg> 